<?xml version="1.0" encoding="UTF-8" standalone="no"?>
<!DOCTYPE svg PUBLIC "-//W3C//DTD SVG 1.1//EN" "http://www.w3.org/Graphics/SVG/1.1/DTD/svg11.dtd">
<svg width="100%" height="100%" viewBox="0 0 4167 4167" version="1.1" xmlns="http://www.w3.org/2000/svg" xmlns:xlink="http://www.w3.org/1999/xlink" xml:space="preserve" xmlns:serif="http://www.serif.com/" style="fill-rule:evenodd;clip-rule:evenodd;stroke-linecap:round;stroke-linejoin:round;stroke-miterlimit:1.5;">
    <path d="M595.394,723.294L595.394,1139.96L1898.96,3443.37L2700.82,3443.37L2700.82,2976.53C2700.82,2976.53 2425.62,2509.11 2354.26,2387.9C2350.83,2382.07 2350.78,2374.85 2354.14,2368.97C2357.5,2363.1 2363.75,2359.47 2370.51,2359.47L3291.2,2359.47C3293.18,2359.47 3295.06,2358.57 3296.3,2357.03C3297.54,2355.48 3298.01,2353.45 3297.58,2351.51L3297.57,2351.51L3571.27,1323.96L3343.12,723.288L2466.02,723.288L2700.82,1323.52L2496.87,2095.77C2496.87,2095.77 2482.05,2149.7 2472.95,2182.81C2468.86,2197.72 2455.3,2208.05 2439.85,2208.05L2312.67,2208.05C2295.02,2208.05 2278.69,2198.66 2269.81,2183.41C2157.18,1990.01 1419.49,723.29 1419.49,723.29L595.395,723.29L595.394,723.294Z" style="fill:rgb(189,177,255);stroke:black;stroke-opacity:0;stroke-width:4.17px;"/>
</svg>
